<?xml version="1.0" standalone="no"?>
<!DOCTYPE svg PUBLIC "-//W3C//DTD SVG 20010904//EN"
 "http://www.w3.org/TR/2001/REC-SVG-20010904/DTD/svg10.dtd">
<svg version="1.0" xmlns="http://www.w3.org/2000/svg"
 width="642.000000pt" height="642.000000pt" viewBox="0 0 642.000000 642.000000"
 preserveAspectRatio="xMidYMid meet">
<metadata>
Created by potrace 1.11, written by Peter Selinger 2001-2013
</metadata>
<g transform="translate(0.000000,642.000000) scale(0.100000,-0.100000)"
fill="#000000" stroke="none">
<path d="M10 3215 l0 -3205 3205 0 3205 0 0 3205 0 3205 -3205 0 -3205 0 0
-3205z m6400 -200 l0 -2995 -3195 0 -3195 0 0 2995 0 2995 3195 0 3195 0 0
-2995z"/>
<path d="M3225 5605 c-25 -24 -25 -27 -25 -190 0 -163 0 -166 25 -190 l24 -25
566 0 566 0 24 25 c25 24 25 27 25 190 0 163 0 166 -25 190 l-24 25 -566 0
-566 0 -24 -25z"/>
<path d="M4825 5605 c-25 -24 -25 -27 -25 -190 0 -163 0 -166 25 -190 l24 -25
566 0 566 0 24 25 c25 24 25 27 25 190 0 163 0 166 -25 190 l-24 25 -566 0
-566 0 -24 -25z"/>
<path d="M430 4800 c-18 -18 -20 -33 -20 -185 0 -152 2 -167 20 -185 20 -20
33 -20 2785 -20 2752 0 2765 0 2785 20 18 18 20 33 20 185 0 152 -2 167 -20
185 -20 20 -33 20 -2785 20 -2752 0 -2765 0 -2785 -20z m5560 -10 c18 -18 20
-33 20 -175 0 -142 -2 -157 -20 -175 -20 -20 -33 -20 -2775 -20 -2742 0 -2755
0 -2775 20 -18 18 -20 33 -20 175 0 142 2 157 20 175 20 20 33 20 2775 20
2742 0 2755 0 2775 -20z"/>
<path d="M449 3981 l-39 -39 0 -327 0 -327 39 -39 39 -39 2727 0 2727 0 39 39
39 39 0 327 0 327 -39 39 -39 39 -2727 0 -2727 0 -39 -39z m5523 -9 l33 -32 0
-325 0 -325 -33 -32 -32 -33 -2725 0 -2725 0 -32 33 -33 32 0 324 0 324 25 27
c14 15 34 31 45 35 11 5 1241 8 2732 7 l2713 -2 32 -33z"/>
<path d="M675 2806 c-108 -34 -186 -102 -232 -201 l-28 -60 0 -930 0 -930 28
-60 c36 -78 104 -146 181 -182 l61 -28 2530 0 2530 0 60 28 c78 36 146 104
182 181 l28 61 0 930 0 930 -28 61 c-36 77 -104 145 -182 181 l-60 28 -2515 2
c-2012 1 -2523 -1 -2555 -11z m5120 -29 c78 -36 146 -104 182 -181 l28 -61 0
-920 0 -920 -28 -61 c-36 -77 -104 -145 -182 -181 l-60 -28 -2520 0 -2520 0
-61 28 c-77 36 -145 104 -181 182 l-28 60 0 920 0 920 28 60 c47 101 141 180
244 204 22 5 1107 8 2538 8 l2500 -2 60 -28z"/>
<path d="M1210 2015 l0 -405 2005 0 2005 0 0 405 0 405 -2005 0 -2005 0 0
-405z m4000 0 l0 -395 -1995 0 -1995 0 0 395 0 395 1995 0 1995 0 0 -395z"/>
<path d="M1225 1205 c-25 -24 -25 -27 -25 -190 0 -163 0 -166 25 -190 l24 -25
366 0 366 0 24 25 c25 24 25 27 25 190 0 163 0 166 -25 190 l-24 25 -366 0
-366 0 -24 -25z"/>
</g>
</svg>
